<?xml version="1.0" encoding="utf-8"?>
<!-- Generator: Adobe Illustrator 17.0.0, SVG Export Plug-In . SVG Version: 6.00 Build 0)  -->
<!DOCTYPE svg PUBLIC "-//W3C//DTD SVG 1.1//EN" "http://www.w3.org/Graphics/SVG/1.1/DTD/svg11.dtd">
<svg version="1.1" id="Calque_1" xmlns="http://www.w3.org/2000/svg" xmlns:xlink="http://www.w3.org/1999/xlink" x="0px" y="0px"
	 width="350px" height="76.667px" viewBox="0 0 350 76.667" enable-background="new 0 0 350 76.667" xml:space="preserve">
<polygon fill="#FFFFFF" points="209.428,7.119 210.494,10.106 214.416,10.089 211.206,12.391 212.626,15.994 209.451,13.893 
	206.028,16.016 207.423,12.404 204.374,10.124 208.295,10.114 "/>
<polygon fill="#FFFFFF" points="228.111,7.119 229.177,10.106 233.098,10.089 229.889,12.391 231.309,15.994 228.134,13.893 
	224.71,16.016 226.106,12.404 223.056,10.124 226.978,10.114 "/>
<polygon fill="#FFFFFF" points="245.476,7.119 246.542,10.106 250.464,10.089 247.254,12.391 248.674,15.994 245.5,13.893 
	242.076,16.016 243.471,12.404 240.422,10.124 244.343,10.114 "/>
<polygon fill="#FFFFFF" points="137.881,46.091 133.32,51.14 133.32,64.008 130.985,64.008 130.985,25.838 133.32,25.838 
	133.32,47.665 152.432,25.893 155.473,25.838 139.51,44.027 155.201,63.9 152.378,63.9 "/>
<polygon fill="#FFFFFF" points="166.278,28.227 166.278,44.516 181.101,44.516 181.101,46.633 166.278,46.633 166.278,61.891 
	185.228,61.891 185.228,64.063 164.106,64.063 164.106,26.164 185.716,26.164 185.716,28.227 "/>
<path fill="#FFFFFF" d="M204.667,50l-7.927,0.054v14.063h-2.063V25.893h9.991c6.516,0.109,11.837,5.538,11.837,12.054
	c0,4.072-2.009,7.873-5.43,10.099l-1.194,0.76l6.895,15.311h-2.28l-6.57-14.551C206.458,50,205.21,50,204.667,50 M204.449,47.991
	c5.538,0,10.045-4.506,10.045-10.045c0-5.538-4.507-10.045-10.045-10.045h-7.71V47.99h7.71V47.991z"/>
<polygon fill="#FFFFFF" points="240.775,28.227 240.775,44.516 255.598,44.516 255.598,46.633 240.775,46.633 240.775,61.891 
	259.724,61.891 259.724,64.063 238.603,64.063 238.603,26.164 260.212,26.164 260.212,28.227 "/>
<polygon fill="#FFFFFF" points="291.433,64.008 271.344,28.607 271.453,63.954 269.172,63.954 269.172,26.055 272.756,26.055 
	292.465,61.511 292.465,26.055 294.745,26.055 294.745,64.008 "/>
<rect x="304.086" y="25.73" fill="#FFFFFF" width="2.063" height="38.17"/>
<path fill="#FFFFFF" d="M321.515,54.995l-3.638,9.013h-2.715l16.072-38.17l16.18,38.17h-2.769l-3.8-9.013
	C340.845,54.995,321.515,54.995,321.515,54.995z M322.384,52.877h17.646l-8.796-20.904L322.384,52.877z"/>
<path fill="#FFFFFF" d="M3.136,27.181l18.9-10.279c0,0,28.319-2.908,30.536-1.824c2.216,1.084-9.163,2.274-9.163,2.274L7.063,27.071
	C7.063,27.071,2.864,28.545,3.136,27.181"/>
<path fill="#FFFFFF" d="M88.045,10.009c0,0-46.075,0.972-55.074,3.426l-6,4.363l23.436-1.647l11.471,5.465l12.913-6.18l12.177-4.728
	L88.045,10.009z"/>
<path fill="#FFFFFF" d="M50.297,60.75c-0.029-2.836-0.013-5.672-0.019-8.509c-0.001-0.482,0.221-0.724,0.69-0.73
	c0.774-0.009,1.547-0.003,2.405-0.003l2.379-0.146c0.947-0.083,1.894-0.167,2.84-0.259c1.439-0.14,1.532-0.066,1.512,1.358
	c-0.033,2.317-0.066,4.634-0.124,6.95c0,0,0.646,2.534-0.642,2.751c-1.719,0.29-6.689,0.794-8.289,0.995
	C49.989,63.29,50.298,60.854,50.297,60.75 M42.593,63.488l-9.615,0.663l-0.341-1.583c-0.09-3.065-0.059-6.134-0.096-9.2
	c-0.008-0.674,0.26-0.926,0.929-0.932c1.58-0.012,3.161-0.043,4.737-0.135c0,0,4.232,0.124,4.362,0.304
	c-0.073,0.628-0.045,1.269-0.047,1.904c-0.008,1.975-0.01,3.95-0.022,5.924L42.593,63.488z M3.392,27.005
	c2.343-0.545,4.663-1.187,7.007-1.729c3.245-0.75,6.519-1.383,9.752-2.182c2.969-0.733,5.895-1.642,8.851-2.43
	c1.884-0.503,3.795-0.902,5.682-1.392c2.371-0.617,4.723-1.303,7.094-1.917c2.682-0.695,5.376-1.343,8.065-2.012
	c0.198-0.049,0.398-0.089,0.594-0.146c0.983-0.286,1.816-0.442,2.862,0.239c2.668,1.735,5.486,3.242,8.268,4.799
	c0.31,0.174,0.833,0.207,1.162,0.072c2.738-1.127,5.45-2.317,8.178-3.47c2.271-0.959,4.552-1.895,6.831-2.837
	c2.239-0.925,4.48-1.847,6.722-2.767c0.923-0.379,1.854-0.741,2.771-1.134c0.543-0.233,0.95-0.148,1.415,0.256
	c1.232,1.068,2.533,2.056,3.787,3.099c1.553,1.291,3.086,2.606,4.628,3.91c0.502,0.425,1.023,0.829,1.493,1.286
	c0.147,0.143,0.154,0.429,0.226,0.65c-0.197,0.063-0.391,0.163-0.592,0.182c-0.654,0.063-1.312,0.087-1.967,0.143
	c-0.771,0.066-1.302-0.366-1.505-1.117c-0.085-0.315-0.241-0.613-0.461-0.855l-7.649-6.192c-0.541-0.081-2.228,0.689-2.795,0.956
	l-3.344,1.276l-3.598,1.502l-9.375,4.53c-1.357,0.323-3.136,0.709-3.1,2.066l4.451,2.7l5.728,3.078
	c-3.15,0.08-6.701-0.135-7.781-0.208c-0.217-0.015-0.422-0.087-0.602-0.21l-1.795-1.228c-1.065-0.641-2.313-1.467-3.406-2.062
	c-10.638-7.227-11.573-6.72-11.573-6.72c-0.191-0.065-2.367,0.053-2.547,0.093c-1.061,0.237-2.112,0.522-3.172,0.768l-7.209,2.095
	c-1.517,0.346-3.012,0.798-4.535,1.108l-5.387,1.321c-0.056,0.042-0.113,0.085-0.169,0.127L5.678,27.769
	c-0.468,0.07-0.923,0.223-1.385,0.339C4.293,28.108,2.156,27.325,3.392,27.005 M81.82,50.069c0.807-0.067,1.615-0.124,2.421-0.202
	c1.437-0.139,1.514-0.075,1.513,1.354c-0.001,0.961,0,1.922,0,2.751l-0.058,3.217c0,0,0,2.155-1.989,2.155l-1.959,0.005
	c-0.556-0.117-0.863-0.367-0.862-0.904c0.003-2.564-0.014-5.129,0.03-7.693c0,0,0.138-0.525,0.304-0.525
	C81.387,50.225,81.82,50.069,81.82,50.069 M91.168,17.068c0,0.642-0.094,1.846-0.027,2.388l-0.47-0.067
	c0.084-0.342,0.006-1.072,0.002-1.434c-0.01-0.98,0.164-1.218-0.168-1.384l-2-1.219c-0.659-0.592-1.356-1.143-2.04-1.707
	c-0.099,0.047-0.112,0.053-0.211,0.099c0,1.235-0.079,3.582-0.059,4.817l-0.474-0.118c0.015-1.628,0.009-3.256,0.009-5.09
	c-0.678,0.311-1.171,0.519-1.642,0.767l-0.839,0.318c-0.423,0.157-0.798,0.252-1.123,0.435c-0.168,0.094-0.341,0.342-0.348,0.527
	c-0.033,0.86,0.056,2.136,0.106,2.994l-0.527-0.1c-0.054,0.04-0.131,0-0.129-0.068c0.031-0.82-0.039-1.986-0.039-2.77
	c-1.091,0.119-1.129,0.284-1.793,0.616l-3.979,1.989c-0.291,0.145-0.267,0.057-0.332-0.332l9.128-4.581
	c0.348-0.077,0.708-0.182,1.011-0.363c0.463-0.276,0.835-0.316,1.304,0.14c0.657,0.637,1.382,1.2,2.124,1.736
	c1.912,1.382,3.71,2.913,5.586,4.343c0.435,0.331,0.741,0.714,0.907,0.88h-0.332c-0.145-0.227-0.654-0.462-0.829-0.663
	c-0.086-0.099-0.667-0.599-0.829-0.663L91.168,17.068z"/>
<path fill="#FFFFFF" d="M88.565,58.775l0.117-8.881h1.16c1.033,0,2.855,0.336,2.855,0.336v8.545
	C92.698,58.775,88.565,59.309,88.565,58.775"/>
<g opacity="0.77">
	<g>
		<g>
			<defs>
				<rect id="SVGID_1_" x="90.285" y="55.67" width="8.955" height="6.12"/>
			</defs>
			<clipPath id="SVGID_2_">
				<use xlink:href="#SVGID_1_"  overflow="visible"/>
			</clipPath>
			<path clip-path="url(#SVGID_2_)" fill="#636D62" d="M91.045,57.619c0,0,2.383-3.061,5.482-1.511c3.1,1.55,4.649,5.682-1.55,5.682
				C88.78,61.79,90.212,58.614,91.045,57.619"/>
		</g>
	</g>
</g>
<g opacity="0.77">
	<g>
		<g>
			<defs>
				<rect id="SVGID_3_" x="54.183" y="57.093" width="22.464" height="7.78"/>
			</defs>
			<clipPath id="SVGID_4_">
				<use xlink:href="#SVGID_3_"  overflow="visible"/>
			</clipPath>
			<path clip-path="url(#SVGID_4_)" fill="#636D62" d="M76.277,61.249c0,0,0.599-4.762-4.232-4.091s-7.104-1.002-12.945,0.824
				c-5.841,1.825-5.182,6.508-4.44,6.824c0.742,0.316,16.935-0.533,19.238-1.225C76.201,62.889,77.268,62.639,76.277,61.249"/>
		</g>
	</g>
</g>
<g opacity="0.77">
	<g>
		<g>
			<defs>
				<rect id="SVGID_5_" x="7.501" y="58.754" width="39.9" height="9.379"/>
			</defs>
			<clipPath id="SVGID_6_">
				<use xlink:href="#SVGID_5_"  overflow="visible"/>
			</clipPath>
			<path clip-path="url(#SVGID_6_)" fill="#636D62" d="M7.984,64.483c0,0,5.056-5.637,12.097-4.476c7.042,1.161,9.57,0,9.57,0
				s16.07-2.818,17.153,0s0.361,5.305,0.361,5.305s-11.375,3.979-35.931,2.487C7.984,67.301,6.72,67.135,7.984,64.483"/>
		</g>
	</g>
</g>
<g opacity="0.77">
	<g>
		<g>
			<defs>
				<rect id="SVGID_7_" x="68.513" y="53.795" width="10.346" height="11.185"/>
			</defs>
			<clipPath id="SVGID_8_">
				<use xlink:href="#SVGID_7_"  overflow="visible"/>
			</clipPath>
			<path clip-path="url(#SVGID_8_)" fill="#636D62" d="M68.622,63.452c0,0-0.829-10.591,5.802-9.59
				c6.631,1.002,3.813,9.876,3.979,9.59C78.569,63.165,67.295,67.03,68.622,63.452"/>
		</g>
	</g>
</g>
<g opacity="0.77">
	<g>
		<g>
			<defs>
				<rect id="SVGID_9_" x="18.555" y="62.162" width="12.879" height="8.084"/>
			</defs>
			<clipPath id="SVGID_10_">
				<use xlink:href="#SVGID_9_"  overflow="visible"/>
			</clipPath>
			<path clip-path="url(#SVGID_10_)" fill="#636D62" d="M19.649,64.736c0,0,3.427-4.043,7.884-1.996s6.686,7.505-2.228,7.505
				C16.39,70.245,18.45,66.05,19.649,64.736"/>
		</g>
	</g>
</g>
<path fill="#FFFFFF" d="M19.688,26.174c-3.319,0.898-6.62,1.861-9.931,2.79c-0.566,0.159-1.14,0.295-1.715,0.419
	c-0.449,0.097-0.512,0.396-0.451,0.77c0.066,0.403,0.328,0.431,0.662,0.337c0.804-0.228,1.615-0.434,2.414-0.676
	c0.493-0.149,5.245-1.689,5.234-1.141c-0.008,0.431-0.008,0.232,0,0.663c0,0,0,0.663,1.492,0.829s7.129,0.332,7.129,0.332
	s1.06,0.052,0.995-0.995c0.121-2.265,0.107-1.826,0.211-4.092C25.62,24.398,19.688,26.174,19.688,26.174 M20.212,29.005
	c0,0.365-0.403,0.178-0.829,0.166c-0.861-0.025-0.964,0.05-1.824,0c-0.134-0.008-0.995-0.044-0.995-0.166c0-0.166,0,0-0.038-0.411
	c0.008-0.163,0.228-0.406,0.399-0.458c0.801-0.242,1.622-0.424,2.431-0.64c0.421-0.113,0.857-0.066,0.855,0.349v1.16H20.212z
	 M23.528,29.502c-0.746-0.04-1.25-0.075-1.99-0.166c-0.165-0.02-0.483,0.029-0.497-0.166l-0.015-1.671
	c0.023-0.212,0.238-0.51,0.432-0.577c0.681-0.236,1.397-0.374,2.089-0.58c0.406-0.121,0.609-0.036,0.61,0.405
	c0.003,1.786,0.027,0.637,0.034,2.423C24.193,29.567,23.924,29.523,23.528,29.502"/>
<path fill="#FFFFFF" d="M68.787,46.412c0.041-0.106-0.166-4.808-0.166-4.808l-2.945-0.243l-2.635,0.054l-2.387-0.018
	c-0.209,0.005-0.344-0.46-0.348-0.694c-0.05-2.449-0.065-4.898-0.088-7.348c0,0-0.052-0.206-0.715-0.206
	c-0.663,0-6.631-0.166-6.631-0.166s-0.497,0-0.497,0.497s-0.135,3.214-0.135,3.214l-0.123,3.944c0,0.401-0.075,0.711-0.59,0.715
	l-1.976,0.002c-2.154-0.048-2.009,0.344-2.007-1.93c0.002-2.292,0.077-4.584,0.09-6.877c0.003-0.601,0.23-0.785,0.817-0.76
	l3.007,0.114l9.203,0.607l1.907,0.118c0,0,1.496-0.008,1.496-0.524c0-0.516-1.47-0.321-1.47-0.321
	c-0.645-0.011-0.914-0.263-0.886-0.89c0.016-0.361,0.003-0.724,0.003-1.086h0.013c0-0.43-0.008-0.86,0.003-1.289
	c0.009-0.373,0.233-0.499,0.544-0.338c0.5,0.258,2.581,1.326,3.037,1.653c0,0,0.205,0.6,0.332-0.166
	c-2.653-2.155-9.054-5.449-9.054-5.449c-1.541-0.862-3.124-1.651-4.675-2.496c-1.235-0.673-2.475-1.343-3.663-2.093
	c-0.857-0.541-1.628-0.142-2.412,0.065l-6.358,1.788c-1.972,0.53-3.953,1.027-5.922,1.566c-1.204,0.33-2.39,0.722-3.588,1.072
	c-0.5,0.146-1.03,0.204-1.507,0.4c-0.206,0.085-0.31,0.418-0.461,0.638c0.224,0.105,0.451,0.303,0.672,0.296
	c0.425-0.014,0.853-0.118,1.267-0.231c0.397-0.108,0.636-0.03,0.64,0.412c0.012,1.226,0.016,2.453,0.016,3.68
	c0,0.428-0.284,0.53-0.642,0.517c-0.499-0.019-0.999-0.079-1.496-0.058c-0.181,0.008-0.355,0.2-0.532,0.308
	c0.137,0.178,0.249,0.475,0.417,0.511c0.482,0.103,0.987,0.131,1.484,0.132l13.671,0.784l2.416,0.154
	c0.495,0.032,1.064-0.068,1.073,0.693c0.023,1.926,0.048,3.852,0.053,5.777c0.002,0.839-0.066,1.677-0.061,2.516
	c0.004,0.698-0.45,0.654-0.923,0.662l-2.75-0.085c-0.549,0.065-0.699-0.205-0.689-0.72c0.026-1.36,0.009-2.721,0.009-4.081
	c0.085-2.031-0.011-3.121-0.096-3.655c-0.041-0.261-0.258-0.457-0.522-0.473c-1.295-0.081-5.289-0.327-8.033-0.471
	c-1.505-0.079-2.329-0.045-2.779,0.013c-0.308,0.039-0.538,0.302-0.542,0.613l-0.089,7.985c-0.002,0.512-0.205,0.762-0.731,0.739
	c-0.408-0.018-0.818,0.007-1.225-0.021c-0.578-0.039-0.851,0.215-0.847,0.79c0.003,0.454,0,0.909-0.006,1.363l0.15,6.363
	c0,0,0,1.033,5.165,0.517c5.165-0.517,35.055-0.953,35.055-0.953s0.829-0.478,0.829-0.995L68.787,46.412z M56.83,25.389l2.183,1.05
	c0.593,0.312,1.205,0.595,1.768,0.954c0.165,0.105,0.267,0.424,0.271,0.647c0.016,0.997-0.022,1.995-0.024,2.992
	c-0.001,0.461-0.199,0.628-0.663,0.635l-2.797-0.17c-0.273-0.004-0.772-0.163-0.779-0.279C56.689,29.499,56.83,27.456,56.83,25.389
	 M52.54,24.363c0.004-0.221-0.042-0.748,0-1.161c0.891,0.477,0.663,0.332,0.929,0.453l1.227,0.708
	c1.423,0.384,1.101,0.51,1.101,1.027c-0.098,1.327,0.049,2.722,0.058,3.199c0.016,0.791,0.093,1.582,0.065,2.371
	c-0.017,0.464-0.429,0.426-0.786,0.413l-0.936-0.047c-0.224-0.034-0.436,0.007-0.663,0c-1.388-0.042-1.019-0.329-0.995-1.989
	C52.572,27.179,52.501,26.52,52.54,24.363 M47.676,29.08c0.042-2.451,0.099-4.902,0.161-7.353c0.008-0.305,0.081-0.608,0.139-1.019
	c0.74,0.38,1.394,0.679,2.003,1.053c0.162,0.1,1.728,1.218,1.733,1.442c0.047,2.611-0.034,4.352,0,6.963
	c0.007,0.543,0.235,0.844-0.332,0.829c-1.024-0.027-1.484-0.166-3.15-0.166C47.401,30.828,47.661,29.948,47.676,29.08
	 M40.459,41.231c-0.17,0.279-0.533,0.42-1.081,0.42c-0.68,0-2.094,0-3.364-0.054c-2.398-0.101-2.584-0.314-2.584-0.603v-7.686
	c0-0.264,0.178-0.657,0.669-0.657c0.441,0,5.448,0.404,5.731,0.427c0.136,0.006,0.656,0.122,0.656,1.51v5.929
	C40.539,40.645,40.63,40.951,40.459,41.231 M36.06,30.195l-3.09-0.239c-1.59-0.101-1.592-0.084-1.58-1.663
	c0.007-0.953,0.03-1.905,0.019-2.858c-0.005-0.458,0.164-0.726,0.624-0.819c0.507-0.103,1.009-0.232,1.603-0.371l1.723-0.575
	c1.348-0.309,1.428-0.672,1.462,1.111l0.052,2.041c0,0.862-0.014,1.725,0.005,2.587C36.889,29.992,36.652,30.223,36.06,30.195
	 M41.923,26.201l-0.03,3.606c-0.001,0.375,0.008,0.784-0.542,0.73l-2.242-0.218c-1.714-0.086-1.462,0.142-1.576-1.544l0.028-3.544
	c0.061-0.675-0.012-1.407,0.236-2.005c0,0,0.853-0.605,3.819-1.226c0.102,0.243,0.286,0.485,0.293,0.731
	C41.941,23.887,41.923,25.045,41.923,26.201 M46.98,25.661c0,1.452-0.013,2.903,0.007,4.354c0.008,0.579-0.253,0.758-0.793,0.726
	l-2.452-0.058c-0.159-0.005-0.318-0.018-0.476-0.008c-0.746,0.045-0.655-0.396-0.661-1.502c-0.012-2.324-0.012-3.484,0.082-6.476
	c0.033-1.037,0.592-0.925,1.717-1.417l2.049-0.686c0.572-0.127,0.617,0.155,0.616,0.574L46.98,25.661z M58.674,41.238l-0.143,0.015
	c-1.337,0.145-2.241,0.195-2.85,0.195c-0.898,0-1.159-0.107-1.234-0.175c-0.054-0.048-0.083-0.112-0.083-0.179v-0.003l0.115-7.348
	h1.278c0.998,0,2.709,0.263,2.782,0.274l0.136,0.021v7.2H58.674z"/>
<path fill="#FFFFFF" d="M97.122,26.684c-0.431-0.03-0.166,0-0.829-0.166l-2.653-0.332l-0.158-5.681
	c-0.005-0.165-0.129-0.302-0.293-0.323l-4.439-0.555c-0.196-0.025-0.372,0.121-0.384,0.318l-0.363,5.743l-2.652-0.166l0.014-5.918
	c0-0.168-0.131-0.308-0.299-0.317l-6.735-0.381c-0.148-0.008-0.273,0.111-0.272,0.26c0.022,2.057,0.177,3.952,0.164,6.025
	c-0.001,0.218-0.993,0.612-0.995,0.829c-0.017,2.074,0.096,3.565,0.166,5.637l19.065,0.995c0.243-0.114,0.818-0.601,0.829-0.829
	c0.084-1.745,0.13-2.066,0.166-3.813C97.463,27.554,97.547,26.713,97.122,26.684 M83.542,25.523h-0.995h-2.321v-5.637
	c0,0-0.166-0.166,0.332-0.166c0.497,0,2.984,0.166,2.984,0.166S83.874,25.523,83.542,25.523 M92.163,26.186l-2.321-0.332
	c0,0,0-5.139,0.166-5.139s2.122,0.189,2.155,0.332C92.196,21.189,92.163,26.186,92.163,26.186"/>
<path fill="#FFFFFF" d="M97.468,41.604c0.008-0.393-0.104-0.663-0.497-0.663l-1.666-0.079c-0.527-0.011-1.337,0.255-1.318-0.253
	v-5.535c0-0.433,0-0.765-0.332-0.765c-0.868,0-2.859-0.224-4.901-0.32c-0.142-0.007-0.517,0.022-0.57,0.155l0.024,0.605
	c-0.015,0.039-0.024,0.079-0.024,0.12c-0.016,1.692,0.066,4.067,0.001,5.74c-0.008,0.22-1.59-0.029-1.704,0.187
	c-0.102-0.218-0.442,0.035-0.451-0.187c-0.03-0.728-0.008-1.441-0.002-2.166l0.011-0.404c0.008-0.28-0.032-1.188-0.017-1.375
	l0.007-0.141c-0.003-0.809-0.039-1.235,0-2.048V34.31l-0.006-0.113c-0.008-0.146-0.014-0.206-0.16-0.218
	c-1.381-0.115-0.497,0-1.658-0.166c-0.165-0.024-5.212-0.347-5.305-0.332c-0.161,0.027-0.331,0.358-0.331,0.522v6.074
	c0,0.192-0.161,0.345-0.353,0.333c-0.341-0.021-0.808-0.01-0.808,0.2c-0.019,2.417-0.008,4.384-0.001,6.463
	c0.001,0.184,0.15,0.334,0.334,0.334h19.33c0.043,0,0.087-0.005,0.126-0.025c0.176-0.087,0.262-0.282,0.271-0.473
	C97.546,45.163,97.434,43.353,97.468,41.604 M84.04,36.993l-0.043,2.263c0,0-0.106,1.522-0.151,1.519h-2.807
	c-0.417-0.082-0.646-0.258-0.646-0.636c0.003-1.804-0.011-3.608,0.023-5.411c0,0-0.004-0.743,0.121-0.743h0.719
	c0.605-0.047,1.046,0.176,1.65,0.121c1.084,0.04,1.134-0.053,1.134,0.953C84.039,35.734,84.04,36.411,84.04,36.993 M92.66,37.27
	l-0.033,2.097c0,0-0.082,1.411-0.116,1.408h-2.169c-0.322-0.076-0.499-0.239-0.499-0.59c0.002-1.672-0.008-3.344,0.018-5.015
	c0,0-0.003-0.689,0.093-0.689h0.556c0.467-0.044,0.808,0.163,1.275,0.112c0.838,0.037,0.877-0.049,0.876,0.883
	C92.66,36.103,92.66,36.73,92.66,37.27"/>
<path fill="#FFFFFF" d="M15.736,40.913v-7.701c0-0.405,0.47-0.811,1.411-0.811c0.94,0,5.173,0.405,5.173,0.405s0.47,0,0.47,2.026
	c0,2.027,0.47,6.08,0,6.08C22.32,40.913,15.736,41.723,15.736,40.913"/>
</svg>
